<?xml version="1.0" encoding="UTF-8" standalone="no"?>
<!-- Created with Inkscape (http://www.inkscape.org/) -->

<svg
   width="100mm"
   height="100mm"
   viewBox="0 0 100 100"
   version="1.1"
   id="svg5"
   xml:space="preserve"
   inkscape:version="1.2 (dc2aeda, 2022-05-15)"
   sodipodi:docname="icon.svg"
   xmlns:inkscape="http://www.inkscape.org/namespaces/inkscape"
   xmlns:sodipodi="http://sodipodi.sourceforge.net/DTD/sodipodi-0.dtd"
   xmlns="http://www.w3.org/2000/svg"
   xmlns:svg="http://www.w3.org/2000/svg"><sodipodi:namedview
     id="namedview7"
     pagecolor="#000000"
     bordercolor="#000000"
     borderopacity="0.25"
     inkscape:showpageshadow="2"
     inkscape:pageopacity="0"
     inkscape:pagecheckerboard="0"
     inkscape:deskcolor="#d1d1d1"
     inkscape:document-units="mm"
     showgrid="false"
     inkscape:zoom="1"
     inkscape:cx="111.5"
     inkscape:cy="134"
     inkscape:window-width="2560"
     inkscape:window-height="1440"
     inkscape:window-x="0"
     inkscape:window-y="0"
     inkscape:window-maximized="0"
     inkscape:current-layer="g155" /><defs
     id="defs2" /><g
     inkscape:label="Layer 1"
     inkscape:groupmode="layer"
     id="layer1"><g
       id="g155"
       transform="matrix(0.26458333,0,0,0.26458333,-116.31545,-21.800637)"><g
         id="g414"
         transform="translate(-3.891485,4.4401697)"><path
           fill="#ffffff"
           opacity="1"
           stroke="none"
           d="m 640.47115,174.05868 c 3.63134,2.56606 7.20802,5.07995 10.77643,7.60548 6.55606,4.64 13.10413,9.29124 19.6612,13.92981 9.51273,6.72945 19.03459,13.44596 28.5448,20.17894 9.3989,6.6542 18.78415,13.3276 28.18259,19.98238 11.49153,8.13687 22.98953,16.26466 34.4871,24.39306 3.01245,2.12968 6.03403,4.24647 9.04935,6.37214 0.13977,0.0986 0.25899,0.22632 0.494,0.43469 -58.92467,41.71953 -117.7891,83.39639 -176.77402,125.15854 0,-83.46492 0,-166.81865 0,-250.3628 15.21805,10.78526 30.36911,21.52304 45.57855,32.30776 z"
           id="path136"
           style="stroke-width:0.206868" /><path
           fill="#ffffff"
           opacity="1"
           stroke="none"
           d="m 550.33839,268.07922 c 0,-35.63522 0,-71.16702 0,-106.86041 0.66883,0.43083 1.2301,0.78765 1.78669,1.15163 5.37146,3.51279 10.74299,7.02547 16.11099,10.54352 0.33607,0.22026 0.60763,0.59202 0.96923,0.71131 1.72918,0.57049 1.85896,1.83169 1.85798,3.43122 -0.037,60.25553 -0.0338,120.5111 -0.008,180.76666 4e-4,0.98223 -0.30673,1.50274 -1.12953,2.03418 -6.26053,4.04379 -12.47978,8.15149 -18.71297,12.23759 -0.24739,0.16221 -0.50573,0.30766 -0.87443,0.53077 0,-34.90623 0,-69.67463 0,-104.54647 z"
           id="path138"
           style="stroke-width:0.206868" /><path
           fill="#ffffff"
           opacity="1"
           stroke="none"
           d="m 509.30402,210.36277 c 0,-2.02126 0,-3.93908 0,-6.04401 1.66718,1.13587 3.18353,2.16429 4.69505,3.1997 3.94509,2.70246 7.88734,5.40909 11.8329,8.11088 0.50436,0.34537 0.76087,0.72756 0.76033,1.42104 -0.0255,33.23067 -0.0246,66.46139 -0.008,99.69209 4.1e-4,0.69188 -0.20123,1.09226 -0.78657,1.49049 -5.20213,3.53935 -10.37607,7.12013 -15.55961,10.6868 -0.24934,0.17157 -0.51059,0.32583 -0.93392,0.59457 0,-39.7905 0,-79.41931 0,-119.15156 z"
           id="path140"
           style="stroke-width:0.206868" /></g></g></g></svg>
